<!DOCTYPE svg PUBLIC "-//W3C//DTD SVG 1.1//EN" "http://www.w3.org/Graphics/SVG/1.1/DTD/svg11.dtd">
<!-- Uploaded to: SVG Repo, www.svgrepo.com, Transformed by: SVG Repo Mixer Tools -->
<svg fill="#ffffff" width="64px" height="64px" viewBox="-7 0 32 32" version="1.1" xmlns="http://www.w3.org/2000/svg">
<g id="SVGRepo_bgCarrier" stroke-width="0"/>
<g id="SVGRepo_tracerCarrier" stroke-linecap="round" stroke-linejoin="round"/>
<g id="SVGRepo_iconCarrier"> <title>dots-h</title> <path d="M13.28 16c0-1.36 1.12-2.48 2.48-2.48s2.48 1.12 2.48 2.48-1.12 2.48-2.48 2.48-2.48-1.12-2.48-2.48zM16.56 16c0-0.44-0.36-0.8-0.8-0.8s-0.8 0.36-0.8 0.8 0.36 0.8 0.8 0.8 0.8-0.36 0.8-0.8zM6.64 16c0-1.36 1.12-2.48 2.48-2.48s2.48 1.12 2.48 2.48-1.12 2.48-2.48 2.48-2.48-1.12-2.48-2.48zM9.92 16c0-0.44-0.36-0.8-0.8-0.8s-0.8 0.36-0.8 0.8 0.36 0.8 0.8 0.8 0.8-0.36 0.8-0.8zM0 16c0-1.36 1.12-2.48 2.48-2.48s2.48 1.12 2.48 2.48-1.12 2.48-2.48 2.48-2.48-1.12-2.48-2.48zM3.28 16c0-0.44-0.36-0.8-0.8-0.8s-0.8 0.36-0.8 0.8 0.36 0.8 0.8 0.8 0.8-0.36 0.8-0.8z"/> </g>
</svg>