<svg xmlns="http://www.w3.org/2000/svg" xmlns:xlink="http://www.w3.org/1999/xlink" version="1.1" width="50" height="50" viewBox="0 0 256 256" xml:space="preserve">

<defs>
</defs>
<g style="stroke: none; stroke-width: 0; stroke-dasharray: none; stroke-linecap: butt; stroke-linejoin: miter; stroke-miterlimit: 10; fill: none; fill-rule: nonzero; opacity: 1;" transform="translate(1.4065934065934016 1.4065934065934016) scale(2.81 2.81)" >
	<path d="M 83.654 34.558 h -6.271 C 72.89 20.619 59.739 10.979 45 10.979 s -27.891 9.641 -32.383 23.58 H 6.345 C 2.847 34.558 0 37.405 0 40.903 v 8.193 c 0 3.499 2.847 6.346 6.345 6.346 h 6.272 C 17.11 69.381 30.261 79.021 45 79.021 c 14.738 0 27.891 -9.641 32.383 -23.579 h 6.271 c 3.499 0 6.346 -2.847 6.346 -6.346 v -8.193 C 90 37.405 87.153 34.558 83.654 34.558 z M 62.973 34.558 c -0.49 -2.795 -1.16 -5.405 -1.986 -7.794 h 9.072 c 1.725 2.357 3.131 4.97 4.142 7.794 H 62.973 z M 46.5 14.135 c 3.851 0.733 7.393 4.25 10 9.629 h -10 V 14.135 z M 43.5 14.135 v 9.629 h -9.999 C 36.109 18.385 39.651 14.869 43.5 14.135 z M 43.5 26.764 v 7.794 H 30.088 c 0.525 -2.823 1.247 -5.438 2.134 -7.794 H 43.5 z M 46.5 26.764 h 11.279 c 0.887 2.357 1.609 4.972 2.134 7.794 H 46.5 V 26.764 z M 67.573 23.764 h -7.756 c -1.462 -3.348 -3.257 -6.145 -5.295 -8.259 C 59.509 17.127 64 19.983 67.573 23.764 z M 35.479 15.504 c -2.038 2.114 -3.834 4.911 -5.296 8.26 h -7.758 C 26 19.982 30.492 17.126 35.479 15.504 z M 19.94 26.764 h 9.073 c -0.826 2.389 -1.496 5 -1.985 7.794 h -11.23 C 16.81 31.734 18.215 29.12 19.94 26.764 z M 3 49.097 v -8.193 c 0 -1.845 1.5 -3.345 3.345 -3.345 h 61.617 v 14.884 H 6.345 C 4.5 52.442 3 50.941 3 49.097 z M 43.5 66.236 v 9.629 c -3.849 -0.734 -7.392 -4.25 -9.999 -9.629 H 43.5 z M 32.221 63.236 c -0.887 -2.356 -1.609 -4.972 -2.133 -7.794 H 43.5 v 7.794 H 32.221 z M 46.5 75.865 v -9.629 h 9.998 C 53.891 71.615 50.349 75.131 46.5 75.865 z M 46.5 63.236 v -7.794 h 13.413 c -0.525 2.822 -1.247 5.438 -2.134 7.794 H 46.5 z M 27.029 55.442 c 0.489 2.795 1.159 5.405 1.985 7.794 H 19.94 c -1.725 -2.357 -3.13 -4.97 -4.141 -7.794 H 27.029 z M 22.426 66.236 h 7.758 c 1.462 3.348 3.257 6.145 5.296 8.26 C 30.492 72.874 26 70.018 22.426 66.236 z M 54.52 74.496 c 2.038 -2.114 3.834 -4.911 5.296 -8.26 h 7.758 C 64 70.018 59.508 72.874 54.52 74.496 z M 70.059 63.236 h -9.073 c 0.826 -2.389 1.496 -4.999 1.985 -7.794 h 11.23 C 73.19 58.267 71.785 60.88 70.059 63.236 z M 87 49.097 c 0 1.845 -1.501 3.346 -3.346 3.346 H 70.962 V 37.558 h 12.692 c 1.845 0 3.346 1.5 3.346 3.345 V 49.097 z" style="stroke: none; stroke-width: 1; stroke-dasharray: none; stroke-linecap: butt; stroke-linejoin: miter; stroke-miterlimit: 10; fill: rgb(255,255,255); fill-rule: nonzero; opacity: 1;" transform=" matrix(1 0 0 1 0 0) " stroke-linecap="round" />
	<path d="M 83.54 40.606 c -1.934 -1.933 -5.08 -1.933 -7.014 0 v 0 c -1.562 1.561 -1.84 3.904 -0.879 5.771 L 73 49.025 l 2.121 2.121 l 2.648 -2.648 c 0.711 0.365 1.483 0.57 2.265 0.57 c 1.27 0 2.54 -0.483 3.507 -1.449 C 85.474 45.686 85.474 42.54 83.54 40.606 z M 81.419 45.499 c -0.764 0.763 -2.008 0.763 -2.771 0 c -0.764 -0.764 -0.764 -2.007 0 -2.771 c 0.764 -0.764 2.008 -0.764 2.771 0 S 82.183 44.735 81.419 45.499 z" style="stroke: none; stroke-width: 1; stroke-dasharray: none; stroke-linecap: butt; stroke-linejoin: miter; stroke-miterlimit: 10; fill: rgb(255,255,255); fill-rule: nonzero; opacity: 1;" transform=" matrix(1 0 0 1 0 0) " stroke-linecap="round" />
</g>
</svg>